# https://github.com/mikedh/trimesh
v -0.01552833 -0.00114905 -0.00401079
v -0.01480927 -0.00707524 -0.00011079
v -0.01536045 -0.00136090 -0.00001653
v -0.01506577 -0.00233315 -0.01821438
v -0.01530789 0.00264405 -0.01100115
v -0.01493674 -0.00730497 -0.01069042
v -0.01342783 -0.00739505 0.00000228
v -0.01080397 0.00572217 0.00000413
v -0.01390341 -0.00293714 -0.02496424
v -0.01422295 0.00259915 -0.02180779
v -0.01344741 0.00757834 -0.01752739
v -0.01353119 0.00799916 -0.00698162
v -0.01488832 0.00490912 -0.00073362
v -0.01291371 -0.00996966 -0.01650109
v -0.01394528 -0.00761473 -0.02065613
v -0.01184551 -0.01129248 -0.00699182
v -0.01347515 -0.00965894 -0.00007268
v -0.01230308 -0.00582774 -0.02876908
v -0.01196171 0.01021975 -0.00010682
v -0.01243945 0.00561675 -0.02627743
v -0.01120931 -0.01120942 -0.00004127
v -0.01092651 -0.01009169 -0.02599649
v -0.01153135 -0.00088951 -0.03142236
v -0.01118534 0.01004555 -0.02284871
v -0.01032364 0.01221853 -0.01458075
v -0.00998045 0.00478546 -0.03241233
v -0.00996699 0.01255654 -0.00404114
v -0.01047224 -0.00609189 -0.03261731
v -0.00893313 0.01053634 -0.02748609
v -0.00958711 -0.01186388 -0.02135881
v 0.00525007 -0.00148367 0.00000026
v -0.00809309 0.01291071 -0.02222746
v -0.00653808 -0.01231198 -0.00938150
v -0.00982079 -0.00851695 -0.03161047
v -0.00542019 -0.01232023 0.00000361
v -0.00695412 -0.01084299 -0.03049887
v -0.00879439 -0.00445561 -0.03547108
v -0.00789710 0.00078409 -0.03579778
v -0.00765215 0.01406630 -0.01383902
v -0.00724878 -0.00709608 -0.03523287
v -0.00479824 -0.00928956 -0.03466356
v -0.00565108 0.00612629 -0.03540243
v -0.00703422 0.00898478 -0.03223608
v -0.00505880 0.01531732 -0.00628735
v -0.00562018 0.01486667 -0.00028363
v -0.00414775 -0.01206418 -0.02845510
v -0.00489978 -0.00442278 -0.03798058
v -0.00508873 0.01267945 -0.02758174
v 0.00184405 0.01342312 -0.00013926
v -0.00337398 0.01541954 -0.01792543
v 0.00223847 -0.01249288 -0.01275632
v -0.00405886 -0.00763492 -0.03712118
v -0.00331553 0.00173987 -0.03787645
v -0.00274808 0.00961456 -0.03395651
v 0.00322342 -0.01205138 -0.02588324
v -0.00232935 -0.01083389 -0.03279960
v -0.00091025 0.00601132 -0.03702915
v -0.00087740 0.01150544 -0.03156224
v -0.00130832 0.01594840 -0.00216038
v 0.00003996 -0.00848518 -0.03700780
v -0.00013395 0.01383780 -0.02656453
v 0.00122291 0.01600326 -0.00956312
v -0.00059292 -0.00095028 -0.03882268
v 0.00286406 0.01577571 -0.00022365
v 0.00104016 -0.00562419 -0.03862493
v 0.00339204 -0.01132305 -0.03144281
v 0.00364967 0.00920510 -0.03375137
v 0.00198204 0.01561993 -0.01812677
v 0.00177738 0.00218409 -0.03830359
v 0.00360682 -0.01255614 -0.00005698
v 0.00400820 -0.00220439 -0.03851487
v 0.00459866 0.01555188 -0.00470658
v 0.00509341 0.01272988 -0.02736711
v 0.00441318 -0.00673597 -0.03761407
v 0.00517954 0.00350077 -0.03686605
v 0.00539991 0.01481936 -0.01797526
v 0.00477045 -0.00863013 -0.03566030
v 0.00701073 -0.00979577 -0.03195645
v 0.00772306 -0.00554087 -0.03580004
v 0.00770015 0.00503326 -0.03430385
v 0.00684516 -0.00181497 -0.03678296
v 0.00927080 -0.01219011 -0.01677594
v 0.00821655 0.00810271 -0.03202476
v 0.00886671 0.01345652 -0.01611377
v 0.01021590 -0.01211280 -0.00592420
v 0.00858420 -0.01163838 -0.02528742
v 0.00898847 0.01173335 -0.02473028
v 0.00862384 0.01368321 -0.00608200
v 0.00799556 0.01368808 -0.00014565
v 0.00928025 -0.01196514 0.00000370
v 0.00943615 -0.00790645 -0.03280016
v 0.00937846 0.00024687 -0.03452254
v 0.01100614 0.00430107 -0.03085451
v 0.01187276 0.01081119 -0.00698771
v 0.01015302 -0.00435220 -0.03351795
v 0.01087827 0.00849259 -0.02666017
v 0.01213647 0.00941124 -0.01968412
v 0.01308341 0.00843061 -0.00000146
v 0.01281930 -0.01023674 -0.01561477
v 0.01088728 -0.00929126 -0.02780822
v 0.01206344 -0.00708619 -0.02869511
v 0.01217308 -0.00270049 -0.02982736
v 0.01349887 -0.00977339 -0.00288551
v 0.01278727 -0.01016060 -0.00001004
v 0.01355386 -0.00845924 -0.02025863
v 0.01296427 0.00460732 -0.02552126
v 0.01447362 0.00579891 -0.00577373
v 0.01391782 -0.00288365 -0.02392258
v 0.01401050 0.00594083 -0.01695197
v 0.01439978 0.00261611 -0.01986602
v 0.01526600 -0.00655144 -0.00532787
v 0.01548220 -0.00524515 0.00000080
v 0.01497454 -0.00480455 -0.01670334
v 0.01554015 -0.00089458 -0.00908207
v 0.01550626 0.00200613 -0.00000039
f 56 36 41
f 16 14 30
f 63 47 53
f 12 5 13
f 53 47 38
f 45 44 27
f 7 2 17
f 70 35 51
f 22 34 36
f 19 27 12
f 1 6 2
f 19 13 8
f 9 18 15
f 42 53 38
f 6 16 17
f 60 41 52
f 6 14 16
f 75 69 57
f 6 15 14
f 13 5 1
f 86 55 66
f 25 32 24
f 65 52 47
f 81 74 71
f 27 25 12
f 109 106 97
f 49 45 8
f 59 44 45
f 81 79 74
f 46 30 36
f 39 25 27
f 29 26 20
f 45 19 8
f 33 30 46
f 28 40 34
f 111 99 105
f 93 92 80
f 71 65 63
f 5 10 4
f 2 6 17
f 4 9 15
f 37 40 28
f 13 3 8
f 47 52 40
f 89 72 64
f 70 51 85
f 54 42 43
f 79 91 77
f 24 29 20
f 24 20 11
f 112 31 104
f 94 84 88
f 92 79 81
f 10 9 4
f 112 103 111
f 69 63 53
f 52 41 40
f 35 33 51
f 84 97 87
f 103 85 99
f 4 6 1
f 101 91 95
f 115 114 107
f 41 34 40
f 96 93 83
f 55 33 46
f 98 89 49
f 54 57 42
f 5 4 1
f 114 113 110
f 31 21 35
f 98 94 89
f 64 72 59
f 48 43 29
f 36 34 41
f 18 28 34
f 7 3 2
f 44 39 27
f 75 71 69
f 66 46 56
f 98 107 94
f 76 73 68
f 89 94 88
f 23 37 28
f 102 95 92
f 102 101 95
f 20 23 9
f 12 11 5
f 82 55 86
f 23 18 9
f 107 114 109
f 20 10 11
f 99 86 100
f 33 16 30
f 56 41 60
f 19 12 13
f 112 104 103
f 89 88 72
f 57 69 53
f 18 34 22
f 105 100 101
f 79 77 74
f 111 105 113
f 62 50 44
f 8 3 7
f 39 32 25
f 23 38 37
f 89 64 49
f 43 42 26
f 67 80 75
f 58 54 48
f 47 40 37
f 101 100 91
f 44 50 39
f 97 106 96
f 14 22 30
f 64 45 49
f 98 49 31
f 106 102 93
f 115 98 31
f 6 4 15
f 87 83 73
f 93 102 92
f 45 27 19
f 55 46 66
f 85 82 99
f 86 66 78
f 35 16 33
f 75 57 67
f 78 66 77
f 111 103 99
f 95 79 92
f 18 23 28
f 13 1 3
f 50 32 39
f 50 48 32
f 85 51 82
f 68 61 50
f 26 38 23
f 47 37 38
f 77 60 74
f 78 77 91
f 29 43 26
f 49 8 31
f 109 114 110
f 48 54 43
f 20 26 23
f 59 62 44
f 7 21 31
f 31 8 7
f 73 58 61
f 65 60 52
f 12 25 11
f 90 70 85
f 109 110 106
f 51 33 55
f 67 57 54
f 73 67 58
f 115 31 112
f 108 105 101
f 74 60 65
f 115 112 114
f 110 108 106
f 66 60 77
f 32 29 24
f 15 18 22
f 66 56 60
f 93 80 83
f 57 53 42
f 61 58 48
f 35 21 16
f 80 92 75
f 15 22 14
f 42 38 26
f 3 1 2
f 67 54 58
f 31 70 90
f 87 97 96
f 71 74 65
f 11 10 5
f 105 99 100
f 84 87 76
f 104 85 103
f 113 105 108
f 100 78 91
f 75 81 71
f 106 93 96
f 107 109 94
f 76 68 62
f 10 20 9
f 68 50 62
f 82 86 99
f 87 73 76
f 61 48 50
f 83 67 73
f 87 96 83
f 51 55 82
f 32 48 29
f 72 76 62
f 98 115 107
f 64 59 45
f 83 80 67
f 88 84 72
f 69 71 63
f 7 17 21
f 31 90 104
f 84 94 97
f 94 109 97
f 110 113 108
f 31 35 70
f 72 84 76
f 100 86 78
f 46 36 56
f 108 102 106
f 72 62 59
f 30 22 36
f 104 90 85
f 95 91 79
f 21 17 16
f 25 24 11
f 63 65 47
f 73 61 68
f 114 111 113
f 92 81 75
f 112 111 114
f 108 101 102

