# https://github.com/mikedh/trimesh
v 0.00208497 0.01609922 -0.00606037
v -0.00184670 0.01608238 -0.00589710
v -0.00129381 0.01607116 -0.00438437
v 0.00223855 0.01602066 -0.00009433
v 0.00550983 0.01535852 -0.00551833
v 0.00388494 0.01571203 -0.00606037
v -0.01002644 0.01257810 -0.00606037
v -0.00675209 0.01481422 -0.00558660
v -0.00482004 0.01538938 -0.00563647
v -0.00448216 0.01542866 -0.00042561
v -0.00129381 0.01577937 -0.00030093
v 0.01274658 0.00926741 -0.00000290
v 0.00773062 0.01391360 -0.00010679
v -0.00765821 0.01395288 -0.00002665
v 0.00869511 0.01359656 -0.00386845
v 0.00873196 0.01361059 -0.00606037
v -0.01477209 0.00537876 -0.00606037
v -0.01262503 0.00981733 -0.00585495
v -0.01019230 0.01233401 -0.00278911
v 0.01550182 0.00250576 -0.00000171
v 0.01512401 0.00436591 -0.00540196
v 0.01180666 0.01086945 -0.00606037
v -0.01099093 0.00522725 0.00000482
v 0.00606272 0.00563127 0.00000066
v -0.01203528 0.01019609 -0.00010679
v -0.01510997 0.00436030 -0.00003496
v -0.01561679 -0.00216007 -0.00606037
v -0.01485196 0.00538437 -0.00385717
v 0.01548953 -0.00581305 -0.00000052
v 0.01568919 -0.00224424 -0.00606037
v -0.01552464 -0.00561665 0.00000066
v -0.01014316 -0.00633771 0.00000363
v 0.01124148 -0.01146366 0.00000066
v -0.01569051 -0.00277732 -0.00430838
v -0.01512840 -0.00701387 -0.00606037
v 0.01375407 -0.00936222 -0.00001774
v 0.01534210 -0.00643030 -0.00606037
v -0.01345744 -0.00969329 -0.00001833
v -0.00999879 -0.01199393 -0.00000171
v -0.00482004 -0.01236428 0.00000007
v -0.00171462 -0.01255787 0.00000066
v 0.00690128 -0.01254946 -0.00000052
v 0.01000669 -0.01222961 -0.00606037
v 0.01342233 -0.00999910 -0.00606037
v -0.01402569 -0.00903395 -0.00606037
v -0.01312263 -0.01029089 -0.00418429
v -0.01054554 -0.01199674 -0.00406615
v -0.00407363 -0.01249895 -0.00593807
v -0.01075441 -0.01189854 -0.00606037
v -0.01289840 -0.01054060 -0.00606037
f 1 2 3
f 1 3 4
f 1 4 5
f 1 5 6
f 1 6 16
f 1 16 22
f 1 22 30
f 1 30 37
f 1 37 44
f 1 44 43
f 1 43 49
f 1 49 50
f 1 50 45
f 1 45 35
f 1 35 27
f 1 27 17
f 1 17 7
f 1 7 2
f 2 7 8
f 2 8 9
f 2 9 10
f 2 10 3
f 3 10 11
f 3 11 4
f 4 12 13
f 4 13 5
f 4 11 10
f 4 10 14
f 4 14 12
f 5 13 15
f 5 15 16
f 5 16 6
f 7 17 18
f 7 18 19
f 7 19 8
f 8 14 10
f 8 10 9
f 8 19 14
f 12 20 21
f 12 21 22
f 12 22 15
f 12 15 13
f 12 14 23
f 12 23 24
f 12 24 20
f 14 19 25
f 14 25 26
f 14 26 23
f 15 22 16
f 17 27 26
f 17 26 28
f 17 28 18
f 18 28 25
f 18 25 19
f 20 29 30
f 20 30 21
f 20 24 29
f 21 30 22
f 23 26 31
f 23 31 32
f 23 32 33
f 23 33 29
f 23 29 24
f 25 28 26
f 26 27 34
f 26 34 31
f 27 35 34
f 29 33 36
f 29 36 37
f 29 37 30
f 31 34 35
f 31 35 38
f 31 38 39
f 31 39 32
f 32 39 40
f 32 40 41
f 32 41 33
f 33 41 42
f 33 42 43
f 33 43 44
f 33 44 36
f 35 45 38
f 36 44 37
f 38 45 46
f 38 46 47
f 38 47 39
f 39 47 48
f 39 48 40
f 40 48 41
f 41 48 42
f 42 48 43
f 43 48 49
f 45 50 46
f 46 50 47
f 47 50 49
f 47 49 48

