# https://github.com/mikedh/trimesh
v -0.01545727 0.00011142 -0.00257954
v -0.01544165 0.00011142 -0.00606037
v -0.01529175 0.00011142 -0.00001952
v -0.01511581 0.00436808 -0.00003496
v -0.00482304 0.00011142 -0.00606037
v -0.01495965 0.00490371 -0.00606037
v -0.01313575 0.00011142 0.00000244
v -0.01099537 0.00523587 0.00000482
v -0.00766196 0.01395566 -0.00002487
v -0.01204057 0.01020172 -0.00010679
v -0.01485763 0.00539297 -0.00385717
v -0.00482304 0.00011142 -0.00017091
v -0.00482304 0.01538752 -0.00606037
v -0.01459321 0.00587175 -0.00606037
v -0.01061955 0.00011142 0.00000423
v -0.00500314 0.00235121 0.00000363
v -0.00482304 0.00538100 0.00000304
v -0.00482304 0.01016880 -0.00001240
v -0.00632943 0.00011142 0.00000363
v -0.01019689 0.01233828 -0.00278911
v -0.00482304 0.01223504 -0.00001952
v -0.00482304 0.01527380 -0.00038286
v -0.00482304 0.01539500 -0.00168543
v -0.00671982 0.01485338 -0.00511343
v -0.01266312 0.00979176 -0.00565072
v -0.00482304 0.00222254 0.00000304
v -0.00652826 0.01490275 -0.00606037
v -0.00482304 0.01538901 -0.00590839
v -0.01268081 0.00974389 -0.00606037
v -0.00705087 0.01466037 -0.00606037
v -0.01003137 0.01258365 -0.00606037
v -0.00482304 0.01539200 -0.00536456
v -0.01250592 0.00996532 -0.00606037
f 1 2 5
f 1 5 12
f 1 12 19
f 1 19 15
f 1 15 7
f 1 7 3
f 1 3 4
f 1 4 2
f 2 4 6
f 2 6 14
f 2 14 29
f 2 29 33
f 2 33 31
f 2 31 30
f 2 30 27
f 2 27 13
f 2 13 5
f 3 7 8
f 3 8 4
f 4 8 9
f 4 9 10
f 4 10 11
f 4 11 6
f 5 13 28
f 5 28 32
f 5 32 23
f 5 23 22
f 5 22 21
f 5 21 18
f 5 18 17
f 5 17 26
f 5 26 12
f 6 11 14
f 7 15 8
f 8 16 17
f 8 17 18
f 8 18 9
f 8 15 19
f 8 19 16
f 9 20 10
f 9 18 21
f 9 21 22
f 9 22 23
f 9 23 24
f 9 24 20
f 10 20 25
f 10 25 11
f 11 25 14
f 12 26 19
f 13 27 28
f 14 25 29
f 16 26 17
f 16 19 26
f 20 24 30
f 20 30 31
f 20 31 25
f 23 32 24
f 24 32 27
f 24 27 30
f 25 33 29
f 25 31 33
f 27 32 28

