# https://github.com/mikedh/trimesh
v -0.00482304 0.00240114 0.00000360
v -0.00129694 0.00546168 0.00000123
v -0.00482304 0.00538032 0.00000182
v -0.00482304 -0.00513657 0.00000242
v -0.00129694 -0.01255927 0.00000123
v -0.00129694 0.01009595 -0.00001361
v -0.00482304 0.01223356 -0.00001954
v -0.00482304 -0.01236852 0.00000004
v -0.00214058 -0.01255927 0.00000123
v -0.00331802 -0.01255647 -0.00606037
v -0.00129694 -0.01255647 -0.00481861
v -0.00129694 0.01577940 -0.00030090
v -0.00482304 0.01527165 -0.00038281
v -0.00482304 -0.01243304 -0.00467615
v -0.00335840 -0.01255647 -0.00606037
v -0.00129694 -0.01250878 -0.00606037
v -0.00129694 0.01607395 -0.00438530
v -0.00414923 0.01558583 -0.00046829
v -0.00482304 0.01539227 -0.00168631
v -0.00482304 -0.01244145 -0.00561578
v -0.00482304 -0.01244145 -0.00606037
v -0.00129694 0.01609359 -0.00606037
v -0.00237151 0.01608798 -0.00568820
v -0.00482304 0.01538947 -0.00536351
v -0.00482304 0.01538666 -0.00606037
v -0.00243433 0.01606553 -0.00606037
f 1 2 3
f 1 3 7
f 1 7 13
f 1 13 19
f 1 19 24
f 1 24 25
f 1 25 21
f 1 21 20
f 1 20 14
f 1 14 8
f 1 8 4
f 1 4 5
f 1 5 2
f 2 6 7
f 2 7 3
f 2 5 11
f 2 11 16
f 2 16 22
f 2 22 17
f 2 17 12
f 2 12 6
f 4 8 9
f 4 9 5
f 5 9 15
f 5 15 10
f 5 10 11
f 6 12 7
f 7 12 13
f 8 14 15
f 8 15 9
f 10 15 21
f 10 21 25
f 10 25 26
f 10 26 22
f 10 22 16
f 10 16 11
f 12 17 18
f 12 18 13
f 13 18 19
f 14 20 15
f 15 20 21
f 17 22 23
f 17 23 18
f 18 24 19
f 18 23 24
f 22 26 23
f 23 26 25
f 23 25 24

