# https://github.com/mikedh/trimesh
v 0.01569123 -0.00221951 -0.00611173
v 0.01001501 -0.01223776 -0.00610531
v 0.01482999 -0.00752591 -0.00823897
v 0.01493113 -0.00360028 -0.01954252
v 0.01517326 0.00270072 -0.01575328
v 0.01509357 0.00443433 -0.00606360
v -0.00333577 -0.01255448 -0.00606360
v 0.00236191 -0.01256004 -0.01943022
v 0.00635243 -0.01175158 -0.02909423
v 0.01109386 -0.01102646 -0.02031256
v 0.01190606 -0.00850939 -0.02682582
v 0.01329753 0.00006974 -0.02744826
v 0.01436106 0.00683471 -0.01207633
v 0.01303088 0.00590123 -0.02452211
v 0.01026633 0.01224946 -0.00609248
v -0.00433494 0.01543052 -0.00606360
v -0.01561996 -0.00216394 -0.00606360
v -0.01208918 -0.01079865 -0.00788924
v -0.00584594 -0.01137096 -0.03021399
v 0.00099495 -0.01159322 -0.03214230
v 0.00173360 -0.00783429 -0.03727911
v 0.00948478 -0.00597844 -0.03367597
v 0.01003033 0.00578732 -0.03145568
v 0.01174668 0.01037138 -0.01937567
v 0.00338559 0.01582225 -0.00637162
v 0.00727497 0.01447759 -0.01477468
v -0.01130762 0.01121596 -0.00606360
v -0.00430735 0.01547219 -0.01706876
v -0.00964950 0.01314404 -0.01350732
v -0.01477405 0.00538448 -0.00606360
v -0.01527056 0.00339249 -0.01285600
v -0.01528895 -0.00301686 -0.01690513
v -0.01188076 -0.01027912 -0.01980240
v -0.01097048 -0.00809822 -0.02955304
v -0.00685123 -0.00510886 -0.03655078
v 0.00234045 -0.00094708 -0.03884165
v 0.00659762 0.00200061 -0.03663420
v 0.00162633 0.00944346 -0.03403532
v 0.00580994 0.01311071 -0.02548145
v 0.00114207 0.01569167 -0.01906445
v -0.01319561 0.00839329 -0.01768800
v -0.00143246 0.01423310 -0.02587610
v -0.00711482 0.01363301 -0.02261626
v -0.01185624 0.00851553 -0.02383870
v -0.01448594 0.00187559 -0.02139703
v -0.01371358 -0.00293073 -0.02607823
v -0.01101339 0.00062261 -0.03227385
v -0.00392730 0.00353418 -0.03725345
v -0.00773087 0.00731256 -0.03299897
v -0.00705352 0.01124652 -0.02873808
f 1 2 3
f 1 3 4
f 1 4 5
f 1 5 6
f 1 6 2
f 2 6 7
f 2 7 8
f 2 8 9
f 2 9 10
f 2 10 3
f 3 10 11
f 3 11 4
f 4 11 12
f 4 12 5
f 5 13 6
f 5 12 14
f 5 14 13
f 6 15 16
f 6 16 27
f 6 27 30
f 6 30 17
f 6 17 7
f 6 13 15
f 7 17 18
f 7 18 19
f 7 19 8
f 8 19 20
f 8 20 9
f 9 20 21
f 9 21 22
f 9 22 11
f 9 11 10
f 11 22 12
f 12 22 23
f 12 23 14
f 13 14 24
f 13 24 15
f 14 23 24
f 15 25 16
f 15 24 26
f 15 26 25
f 16 25 28
f 16 28 29
f 16 29 27
f 17 30 31
f 17 31 32
f 17 32 18
f 18 32 33
f 18 33 19
f 19 34 35
f 19 35 21
f 19 21 20
f 19 33 34
f 21 36 22
f 21 35 36
f 22 36 37
f 22 37 23
f 23 37 38
f 23 38 39
f 23 39 24
f 24 39 26
f 25 26 40
f 25 40 28
f 26 39 40
f 27 29 41
f 27 41 30
f 28 40 42
f 28 42 43
f 28 43 29
f 29 43 44
f 29 44 41
f 30 41 31
f 31 41 45
f 31 45 32
f 32 45 46
f 32 46 33
f 33 46 34
f 34 46 47
f 34 47 35
f 35 47 48
f 35 48 36
f 36 48 38
f 36 38 37
f 38 48 49
f 38 49 50
f 38 50 42
f 38 42 39
f 39 42 40
f 41 44 45
f 42 50 43
f 43 50 44
f 44 50 49
f 44 49 47
f 44 47 45
f 45 47 46
f 47 49 48

