# https://github.com/mikedh/trimesh
v -0.01569051 -0.00278415 -0.00430905
v -0.01529266 0.00010992 -0.00001981
v -0.01545754 0.00010992 -0.00257970
v -0.01560541 -0.00151838 -0.00606037
v -0.01563519 -0.00281733 -0.00606037
v -0.01552882 -0.00562170 0.00000038
v -0.01313640 0.00010992 0.00000275
v -0.01544159 0.00010992 -0.00606037
v -0.01513522 -0.00701773 -0.00606037
v -0.01346298 -0.00969921 -0.00001803
v -0.01000466 -0.01199849 -0.00000200
v -0.01014827 -0.00634307 0.00000394
v -0.01061952 0.00010992 0.00000394
v -0.00482304 0.00010992 -0.00606037
v -0.01434271 -0.00858090 -0.00606037
v -0.01371403 -0.00949398 -0.00606037
v -0.01312789 -0.01029523 -0.00418438
v -0.01054931 -0.01200095 -0.00406802
v -0.00482304 -0.01244458 -0.00561571
v -0.00482304 -0.01243352 -0.00467653
v -0.00482304 -0.01236962 0.00000038
v -0.00482304 -0.00513751 0.00000216
v -0.00632934 0.00010992 0.00000335
v -0.00482304 -0.01244335 -0.00606037
v -0.00482304 0.00010992 -0.00017119
v -0.01290237 -0.01054347 -0.00606037
v -0.01050995 -0.01200341 -0.00606037
v -0.01100673 -0.01180187 -0.00606037
f 1 2 3
f 1 3 4
f 1 4 5
f 1 5 6
f 1 6 2
f 2 7 13
f 2 13 23
f 2 23 25
f 2 25 14
f 2 14 8
f 2 8 3
f 2 6 7
f 3 8 4
f 4 8 14
f 4 14 24
f 4 24 27
f 4 27 28
f 4 28 26
f 4 26 16
f 4 16 15
f 4 15 9
f 4 9 5
f 5 9 6
f 6 9 10
f 6 10 11
f 6 11 12
f 6 12 7
f 7 12 13
f 9 15 10
f 10 15 16
f 10 16 17
f 10 17 18
f 10 18 11
f 11 18 19
f 11 19 20
f 11 20 21
f 11 21 12
f 12 22 23
f 12 23 13
f 12 21 22
f 14 25 22
f 14 22 21
f 14 21 20
f 14 20 19
f 14 19 24
f 16 26 17
f 17 26 18
f 18 27 19
f 18 26 28
f 18 28 27
f 19 27 24
f 22 25 23

