# https://github.com/mikedh/trimesh
v -0.01489074 -0.00788539 -0.00982437
v -0.01569051 -0.00278384 -0.00430921
v -0.01552978 -0.00562107 0.00000075
v -0.01529343 -0.00302007 -0.01690309
v -0.01511665 0.00436781 -0.00003447
v -0.01527631 0.00339482 -0.01285162
v -0.01485776 0.00539155 -0.00385727
v -0.01432369 -0.00725825 -0.01970693
v -0.01014739 -0.00634309 0.00000417
v -0.01099582 0.00523583 0.00000482
v -0.01448936 0.00187752 -0.02139353
v -0.01312853 -0.01029644 -0.00418488
v -0.01346374 -0.00969934 -0.00001787
v -0.01371742 -0.00293328 -0.02608254
v -0.01319949 0.00839664 -0.01768378
v -0.01225132 -0.01125832 -0.01148207
v -0.01272361 -0.00983565 -0.02104942
v -0.01256593 -0.00798650 -0.02642382
v -0.01227210 -0.00014707 -0.03029956
v -0.01247643 0.00669263 -0.02551272
v -0.01266327 0.00979205 -0.00565127
v -0.01204096 0.01020288 -0.00010646
v -0.01143713 -0.00582099 -0.03161695
v -0.01123817 0.01034235 -0.02216817
v -0.00965369 0.01314582 -0.01350428
v -0.01000410 -0.01199932 -0.00000166
v -0.00999493 -0.01040377 -0.02809153
v -0.01020277 0.00566114 -0.03177435
v -0.01019692 0.01233834 -0.00278911
v -0.01024657 -0.01201656 -0.01921928
v -0.01055029 -0.01200181 -0.00406828
v -0.00989740 -0.00819475 -0.03209081
v -0.00975735 0.00138856 -0.03425159
v -0.00875770 -0.00446385 -0.03554582
v -0.00882463 0.01020429 -0.02878141
v -0.00552440 -0.01212984 -0.02828103
v 0.00236462 -0.01256004 -0.01942693
v -0.00333647 -0.01255951 -0.00601807
v -0.00766124 0.01395661 -0.00002450
v -0.00671888 0.01485372 -0.00511349
v -0.00617443 -0.01061663 -0.03215099
v -0.00572440 0.00140325 -0.03746859
v -0.00500309 0.00234987 0.00000364
v -0.00770308 0.00557427 -0.03459699
v -0.00651230 0.00901235 -0.03281989
v -0.00711784 0.01363354 -0.02261959
v 0.00300349 -0.00336321 0.00000007
v -0.00494343 -0.00757730 -0.03698905
v -0.00495601 -0.00393995 -0.03812648
v -0.00213998 -0.01256208 0.00000162
v -0.00528769 0.01229349 -0.02870137
v -0.00414952 0.01558729 -0.00046721
v -0.00431065 0.01547519 -0.01706641
v 0.00606551 0.00563443 0.00000144
v -0.00403858 0.00577795 -0.03660531
v -0.00476617 0.00047482 -0.00258015
v -0.00539606 0.00093267 -0.00011995
v -0.00193123 0.00974993 -0.03420398
v -0.00426989 0.00078038 -0.00018900
v -0.00143583 0.01423659 -0.02587866
v -0.00237061 0.01608986 -0.00568986
v -0.00122348 -0.00921950 -0.03644114
v -0.00023218 0.00555546 -0.03748557
v 0.00083068 0.01174839 -0.03170931
v 0.00099812 -0.01159514 -0.03214625
v -0.00005720 -0.00671085 -0.03864721
v 0.00079826 0.00045576 -0.03906294
v 0.00114398 0.01569458 -0.01906249
v 0.00205553 0.01611770 -0.00728838
v 0.00224021 0.01602584 -0.00009364
v 0.00381036 0.00814399 -0.03512037
v 0.00415436 0.01421021 -0.02435511
v 0.00349572 -0.00875602 -0.03643865
v 0.00472685 -0.00666879 -0.03759882
v 0.00388965 -0.00235704 -0.03862610
v 0.00489701 0.00266772 -0.03753173
v 0.00635703 -0.01175161 -0.02909769
v 0.00567586 0.01528878 -0.01474895
v 0.00550139 0.01536421 -0.00497745
v 0.00690395 -0.01255425 0.00000020
v 0.00616287 0.01191296 -0.02877116
v 0.00773400 0.01391833 -0.00010549
v 0.00930001 -0.00819782 -0.03287816
v 0.00829921 0.00774716 -0.03247068
v 0.00830531 0.00133807 -0.03574093
v 0.00869714 0.01360113 -0.00386868
v 0.00851520 -0.00451306 -0.03576844
v 0.00878548 0.01211845 -0.02445234
v 0.00887923 0.01367064 -0.01479817
v 0.00928443 -0.01214145 -0.02211347
v 0.01002404 -0.01224017 -0.00614003
v 0.01073273 0.00360162 -0.03214593
v 0.01036583 0.00821119 -0.02907044
v 0.01124593 -0.01146772 0.00000221
v 0.01083773 -0.00301146 -0.03319142
v 0.01205522 -0.01092708 -0.01859041
v 0.01120052 -0.01016605 -0.02577939
v 0.01175033 0.01037284 -0.01937197
v 0.01194864 0.01076909 -0.00628400
v 0.01275211 0.00927242 -0.00000242
v 0.01261544 -0.00685691 -0.02787585
v 0.01329941 0.00006892 -0.02745111
v 0.01303436 0.00590252 -0.02452516
v 0.01357685 -0.00993570 -0.00705307
v 0.01376582 -0.00891257 -0.01841591
v 0.01436485 0.00683874 -0.01207309
v 0.01375886 -0.00936792 -0.00001684
v 0.01493478 -0.00360301 -0.01953980
v 0.01516572 0.00430362 -0.00474423
v 0.01524524 -0.00685452 -0.01016139
v 0.01549277 -0.00581773 0.00000041
v 0.01517633 0.00270503 -0.01574867
v 0.01550562 0.00250882 -0.00000069
v 0.01569660 -0.00226794 -0.00625266
f 98 106 103
f 105 96 97
f 43 10 9
f 7 15 6
f 17 18 27
f 93 92 84
f 60 51 46
f 76 75 67
f 1 12 13
f 30 16 17
f 32 48 41
f 9 13 26
f 108 105 101
f 26 12 31
f 15 24 20
f 83 74 87
f 14 18 8
f 67 49 42
f 36 41 65
f 96 91 90
f 110 105 108
f 96 90 97
f 88 81 72
f 40 53 25
f 80 50 38
f 104 96 105
f 62 66 73
f 99 89 86
f 47 9 26
f 52 61 40
f 88 98 93
f 107 94 104
f 86 82 99
f 1 8 17
f 22 21 5
f 105 97 101
f 19 33 34
f 31 16 30
f 42 34 33
f 107 47 94
f 103 102 92
f 29 25 21
f 6 15 11
f 11 14 4
f 63 67 42
f 42 33 44
f 97 90 77
f 15 20 11
f 111 107 104
f 23 34 32
f 85 75 76
f 86 89 78
f 59 9 47
f 44 33 28
f 46 51 35
f 63 42 55
f 41 27 32
f 62 41 48
f 113 114 109
f 76 63 71
f 82 79 70
f 65 41 62
f 79 78 69
f 111 110 114
f 7 2 5
f 25 24 15
f 70 52 54
f 114 110 108
f 57 43 9
f 87 74 75
f 37 30 36
f 39 29 22
f 111 104 110
f 47 107 111
f 21 25 15
f 102 101 95
f 14 23 18
f 10 3 9
f 28 33 19
f 71 84 76
f 47 50 80
f 20 28 19
f 36 27 41
f 85 87 75
f 97 77 83
f 21 7 5
f 26 13 12
f 14 19 23
f 43 57 56
f 108 101 102
f 82 86 79
f 70 79 69
f 50 26 38
f 100 54 113
f 99 98 89
f 67 66 49
f 69 78 68
f 81 64 72
f 83 73 74
f 39 22 10
f 84 85 76
f 82 70 54
f 94 80 91
f 38 30 37
f 30 17 27
f 82 54 100
f 106 112 103
f 101 83 95
f 20 19 11
f 82 100 99
f 25 46 24
f 21 15 7
f 109 112 106
f 94 91 104
f 4 1 2
f 92 102 95
f 34 48 32
f 93 81 88
f 43 59 47
f 11 19 14
f 113 54 111
f 53 46 25
f 22 5 10
f 109 114 112
f 77 65 73
f 4 14 8
f 35 28 20
f 98 88 89
f 26 31 38
f 100 113 109
f 69 68 53
f 90 37 77
f 52 39 54
f 31 12 16
f 54 47 111
f 54 10 43
f 1 16 12
f 38 31 30
f 6 11 4
f 76 67 63
f 37 65 77
f 43 56 59
f 59 56 57
f 35 45 28
f 8 18 17
f 55 42 44
f 93 84 81
f 113 111 114
f 74 73 66
f 81 71 64
f 49 66 48
f 72 60 68
f 51 45 35
f 9 3 13
f 54 43 47
f 99 109 106
f 18 32 27
f 1 17 16
f 46 35 24
f 66 62 48
f 72 64 60
f 112 108 102
f 64 71 58
f 89 72 78
f 6 4 2
f 2 1 3
f 103 92 93
f 65 62 73
f 98 103 93
f 58 55 45
f 51 58 45
f 69 53 61
f 37 36 65
f 47 80 94
f 59 57 9
f 70 61 52
f 29 21 22
f 104 91 96
f 4 8 1
f 91 37 90
f 18 23 32
f 84 92 85
f 91 38 37
f 68 60 53
f 71 63 58
f 24 35 20
f 95 83 87
f 54 39 10
f 60 64 51
f 100 109 99
f 74 66 75
f 110 104 105
f 97 83 101
f 78 72 68
f 63 55 58
f 19 34 23
f 44 28 45
f 47 26 50
f 99 106 98
f 64 58 51
f 49 48 34
f 53 60 46
f 69 61 70
f 77 73 83
f 39 40 29
f 7 6 2
f 52 40 39
f 61 53 40
f 114 108 112
f 95 87 85
f 80 38 91
f 10 5 3
f 86 78 79
f 88 72 89
f 75 66 67
f 3 1 13
f 40 25 29
f 81 84 71
f 5 2 3
f 55 44 45
f 30 27 36
f 92 95 85
f 49 34 42
f 103 112 102

